<?xml version="1.0" encoding="utf-8"?>
<!-- Generator: Adobe Illustrator 24.0.1, SVG Export Plug-In . SVG Version: 6.00 Build 0)  -->
<svg version="1.1" id="Calque_1" xmlns="http://www.w3.org/2000/svg" xmlns:xlink="http://www.w3.org/1999/xlink" x="0px" y="0px"
	 viewBox="0 0 1310.89 799.55" style="enable-background:new 0 0 1310.89 799.55;" xml:space="preserve">
<style type="text/css">
	.st0{fill:#3760AA;}
	.st1{fill:#EA8017;}
</style>
<g>
	<g>
		<g>
			<path class="st0" d="M524.59,289.06v154.24h-38.2V289.06H524.59z"/>
			<path class="st0" d="M726.11,384.26c-0.74-18.54-1.5-40.96-1.5-63.39h-0.5c-5.53,19.68-12.57,41.65-19.1,59.73l-20.61,60.19
				h-29.9l-18.09-59.5c-5.53-18.3-11.06-40.28-15.32-60.42h-0.51c-0.76,20.82-1.76,44.62-2.76,63.85l-3.27,58.59h-35.43l10.8-154.24
				h51.01l16.59,51.49c5.53,17.85,10.56,37.07,14.33,55.16h1c4.52-17.85,10.3-38.22,16.08-55.38l17.84-51.26h50.26l9.05,154.24
				h-37.19L726.11,384.26z"/>
			<path class="st0" d="M820.58,291.12c10.06-1.6,30.15-3.2,49.51-3.2c23.37,0,37.69,2.06,50.25,8.7
				c11.83,5.72,20.11,16.25,20.11,30.44c0,13.5-8.78,26.09-27.9,32.72v0.46c19.36,4.57,33.69,18.08,33.69,37.76
				c0,14.19-7.04,25.18-17.59,32.96c-12.31,8.93-32.92,13.95-66.58,13.95c-18.85,0-32.94-1.15-41.47-2.29V291.12z M858.52,350.16
				h12.57c20.36,0,30.91-7.54,30.91-18.99c0-11.68-9.81-17.85-27.15-17.85c-8.54,0-13.33,0.46-16.34,0.91V350.16z M858.52,418.59
				c3.77,0.45,8.29,0.45,14.82,0.45c17.34,0,32.67-6.17,32.67-22.42c0-15.33-15.33-21.51-34.43-21.51h-13.06V418.59z"/>
			<path class="st0" d="M1025.87,318.35h-45.74v-29.29h130.18v29.29h-46.26v124.95h-38.19V318.35z"/>
		</g>
		<rect x="363.41" y="170.1" class="st0" width="77.22" height="77.22"/>
		<rect x="363.41" y="271.85" class="st0" width="77.22" height="77.21"/>
		<rect x="264.28" y="271.85" class="st0" width="77.22" height="77.21"/>
		<rect x="264.28" y="373.59" class="st0" width="77.22" height="77.22"/>
		<rect x="158.88" y="373.59" class="st0" width="77.22" height="77.22"/>
		<rect x="363.41" y="373.59" class="st1" width="77.22" height="77.22"/>
	</g>
	<g>
		<path class="st0" d="M130.31,505.03h6.18v32.7h-6.18V505.03z"/>
		<path class="st0" d="M142.83,513.54h6.07v2.48c1.38-1.16,2.62-1.97,3.74-2.42c1.12-0.45,2.26-0.68,3.43-0.68
			c2.4,0,4.43,0.84,6.1,2.51c1.41,1.42,2.11,3.53,2.11,6.31v15.98h-6v-10.59c0-2.89-0.13-4.8-0.39-5.75
			c-0.26-0.95-0.71-1.67-1.35-2.16c-0.64-0.5-1.44-0.74-2.38-0.74c-1.23,0-2.28,0.41-3.16,1.23c-0.88,0.82-1.49,1.96-1.83,3.41
			c-0.18,0.75-0.27,2.39-0.27,4.91v9.7h-6.07V513.54z"/>
		<path class="st0" d="M184.95,516.92l-3.76,3.76c-1.53-1.51-2.91-2.27-4.16-2.27c-0.68,0-1.22,0.14-1.6,0.43
			c-0.39,0.29-0.58,0.65-0.58,1.08c0,0.33,0.12,0.63,0.37,0.9c0.24,0.27,0.85,0.65,1.81,1.12l2.22,1.11
			c2.34,1.16,3.95,2.33,4.82,3.53c0.87,1.2,1.31,2.61,1.31,4.22c0,2.15-0.79,3.94-2.37,5.38c-1.58,1.44-3.69,2.16-6.35,2.16
			c-3.53,0-6.34-1.38-8.45-4.13l3.73-4.07c0.71,0.83,1.54,1.5,2.5,2.01c0.96,0.51,1.8,0.77,2.54,0.77c0.8,0,1.44-0.19,1.93-0.58
			c0.49-0.39,0.73-0.83,0.73-1.33c0-0.93-0.88-1.84-2.65-2.73l-2.05-1.02c-3.91-1.97-5.87-4.44-5.87-7.4c0-1.91,0.74-3.54,2.21-4.9
			c1.47-1.36,3.36-2.03,5.66-2.03c1.57,0,3.05,0.34,4.43,1.03C182.81,514.64,183.99,515.63,184.95,516.92z"/>
		<path class="st0" d="M190.91,504.63h6.07v8.91h3.6v5.22h-3.6v18.96h-6.07v-18.96h-3.11v-5.22h3.11V504.63z"/>
		<path class="st0" d="M206.19,503.58c1.06,0,1.98,0.39,2.74,1.16c0.76,0.77,1.14,1.71,1.14,2.8c0,1.08-0.38,2-1.13,2.77
			c-0.75,0.76-1.65,1.14-2.7,1.14c-1.08,0-2-0.39-2.76-1.17c-0.76-0.78-1.14-1.72-1.14-2.83c0-1.07,0.38-1.98,1.13-2.73
			C204.22,503.96,205.12,503.58,206.19,503.58z M203.16,513.54h6.07v24.18h-6.07V513.54z"/>
		<path class="st0" d="M215.47,504.63h6.07v8.91h3.6v5.22h-3.6v18.96h-6.07v-18.96h-3.11v-5.22h3.11V504.63z"/>
		<path class="st0" d="M228.36,513.54h6.13v11.65c0,2.27,0.16,3.84,0.47,4.72c0.31,0.88,0.81,1.57,1.5,2.06
			c0.69,0.49,1.54,0.73,2.55,0.73c1.01,0,1.87-0.24,2.57-0.72c0.71-0.48,1.23-1.19,1.57-2.12c0.25-0.7,0.38-2.19,0.38-4.47v-11.85
			h6.07v10.25c0,4.22-0.33,7.11-1,8.67c-0.82,1.9-2.02,3.35-3.6,4.37c-1.59,1.01-3.6,1.52-6.05,1.52c-2.65,0-4.8-0.59-6.44-1.78
			c-1.64-1.18-2.79-2.84-3.46-4.96c-0.47-1.47-0.71-4.13-0.71-8V513.54z"/>
		<path class="st0" d="M256.44,504.63h6.07v8.91h3.6v5.22h-3.6v18.96h-6.07v-18.96h-3.11v-5.22h3.11V504.63z"/>
		<path class="st0" d="M299.94,504.21h6.07v33.52h-6.07v-2.56c-1.18,1.13-2.37,1.94-3.56,2.43c-1.19,0.5-2.48,0.74-3.87,0.74
			c-3.12,0-5.82-1.21-8.1-3.63c-2.28-2.42-3.42-5.44-3.42-9.04c0-3.73,1.1-6.79,3.31-9.18c2.21-2.39,4.88-3.58,8.04-3.58
			c1.45,0,2.81,0.27,4.08,0.82c1.27,0.55,2.45,1.37,3.53,2.47V504.21z M293.56,518.52c-1.88,0-3.43,0.66-4.67,1.99
			c-1.24,1.33-1.86,3.03-1.86,5.1c0,2.09,0.63,3.81,1.89,5.16c1.26,1.35,2.82,2.02,4.66,2.02c1.91,0,3.49-0.66,4.74-1.99
			c1.26-1.33,1.88-3.06,1.88-5.21c0-2.1-0.63-3.81-1.88-5.11C297.07,519.17,295.48,518.52,293.56,518.52z"/>
		<path class="st0" d="M336.37,527.39h-19.49c0.28,1.72,1.03,3.09,2.26,4.1c1.22,1.02,2.78,1.52,4.68,1.52
			c2.27,0,4.22-0.79,5.85-2.38l5.11,2.4c-1.27,1.81-2.8,3.15-4.58,4.01c-1.78,0.87-3.89,1.3-6.34,1.3c-3.79,0-6.88-1.2-9.27-3.59
			c-2.39-2.39-3.58-5.39-3.58-8.99c0-3.69,1.19-6.75,3.57-9.19c2.38-2.44,5.36-3.66,8.95-3.66c3.81,0,6.91,1.22,9.29,3.66
			c2.39,2.44,3.58,5.66,3.58,9.66L336.37,527.39z M330.3,522.61c-0.4-1.35-1.19-2.45-2.37-3.29c-1.18-0.84-2.55-1.27-4.11-1.27
			c-1.69,0-3.18,0.47-4.45,1.42c-0.8,0.59-1.54,1.64-2.23,3.13H330.3z"/>
		<path class="st0" d="M357.86,505.03h6.06l7.58,22.81l7.65-22.81h6.06l5.49,32.7h-6.02l-3.51-20.65l-6.95,20.65h-5.48l-6.89-20.65
			l-3.59,20.65h-6.07L357.86,505.03z"/>
		<path class="st0" d="M412.84,513.54h6.07v24.18h-6.07v-2.56c-1.18,1.13-2.37,1.94-3.56,2.43c-1.19,0.5-2.48,0.74-3.87,0.74
			c-3.12,0-5.82-1.21-8.1-3.63c-2.28-2.42-3.42-5.44-3.42-9.04c0-3.73,1.1-6.79,3.31-9.18c2.21-2.39,4.88-3.58,8.04-3.58
			c1.45,0,2.81,0.27,4.08,0.82c1.27,0.55,2.45,1.37,3.53,2.47V513.54z M406.46,518.52c-1.88,0-3.43,0.66-4.67,1.99
			c-1.24,1.33-1.86,3.03-1.86,5.1c0,2.09,0.63,3.81,1.89,5.16c1.26,1.35,2.82,2.02,4.66,2.02c1.91,0,3.49-0.66,4.74-1.99
			c1.26-1.33,1.88-3.06,1.88-5.21c0-2.1-0.63-3.81-1.88-5.11C409.96,519.17,408.38,518.52,406.46,518.52z"/>
		<path class="st0" d="M425.04,513.54h6.07v2.48c1.38-1.16,2.62-1.97,3.74-2.42c1.12-0.45,2.26-0.68,3.43-0.68
			c2.4,0,4.43,0.84,6.1,2.51c1.41,1.42,2.11,3.53,2.11,6.31v15.98h-6v-10.59c0-2.89-0.13-4.8-0.39-5.75
			c-0.26-0.95-0.71-1.67-1.35-2.16c-0.64-0.5-1.44-0.74-2.38-0.74c-1.23,0-2.28,0.41-3.16,1.23c-0.88,0.82-1.49,1.96-1.83,3.41
			c-0.18,0.75-0.27,2.39-0.27,4.91v9.7h-6.07V513.54z"/>
		<path class="st0" d="M470.21,513.54h6.07v24.18h-6.07v-2.56c-1.18,1.13-2.37,1.94-3.56,2.43c-1.19,0.5-2.48,0.74-3.87,0.74
			c-3.12,0-5.82-1.21-8.1-3.63c-2.28-2.42-3.42-5.44-3.42-9.04c0-3.73,1.1-6.79,3.31-9.18c2.21-2.39,4.88-3.58,8.04-3.58
			c1.45,0,2.81,0.27,4.08,0.82c1.27,0.55,2.45,1.37,3.53,2.47V513.54z M463.83,518.52c-1.88,0-3.43,0.66-4.67,1.99
			c-1.24,1.33-1.86,3.03-1.86,5.1c0,2.09,0.63,3.81,1.89,5.16c1.26,1.35,2.82,2.02,4.66,2.02c1.91,0,3.49-0.66,4.74-1.99
			c1.26-1.33,1.88-3.06,1.88-5.21c0-2.1-0.63-3.81-1.88-5.11C467.34,519.17,465.75,518.52,463.83,518.52z"/>
		<path class="st0" d="M500.28,513.54h6.05v20.72c0,4.09-0.82,7.1-2.47,9.02c-2.21,2.61-5.54,3.91-9.98,3.91
			c-2.37,0-4.36-0.3-5.98-0.89c-1.62-0.59-2.98-1.46-4.09-2.61c-1.11-1.15-1.93-2.55-2.47-4.19h6.69c0.59,0.68,1.36,1.2,2.29,1.54
			c0.93,0.35,2.04,0.52,3.31,0.52c1.63,0,2.94-0.25,3.93-0.76c0.99-0.5,1.69-1.16,2.1-1.96c0.41-0.8,0.61-2.18,0.61-4.13
			c-1.07,1.07-2.19,1.83-3.36,2.3c-1.17,0.47-2.5,0.7-3.98,0.7c-3.25,0-5.99-1.17-8.22-3.51c-2.24-2.34-3.36-5.31-3.36-8.89
			c0-3.84,1.19-6.92,3.56-9.25c2.15-2.1,4.71-3.16,7.69-3.16c1.39,0,2.71,0.25,3.95,0.77c1.24,0.51,2.48,1.35,3.72,2.52V513.54z
			 M493.99,518.59c-1.91,0-3.49,0.64-4.73,1.92c-1.25,1.28-1.87,2.89-1.87,4.84c0,2.01,0.64,3.67,1.91,4.96
			c1.27,1.29,2.87,1.93,4.8,1.93c1.88,0,3.43-0.63,4.66-1.89c1.22-1.26,1.83-2.91,1.83-4.96c0-2.01-0.62-3.65-1.85-4.91
			C497.52,519.22,495.93,518.59,493.99,518.59z"/>
		<path class="st0" d="M536.69,527.39H517.2c0.28,1.72,1.03,3.09,2.26,4.1c1.22,1.02,2.78,1.52,4.68,1.52
			c2.27,0,4.22-0.79,5.85-2.38l5.11,2.4c-1.27,1.81-2.8,3.15-4.58,4.01c-1.78,0.87-3.89,1.3-6.34,1.3c-3.79,0-6.88-1.2-9.27-3.59
			c-2.39-2.39-3.58-5.39-3.58-8.99c0-3.69,1.19-6.75,3.57-9.19c2.38-2.44,5.36-3.66,8.95-3.66c3.81,0,6.91,1.22,9.29,3.66
			c2.39,2.44,3.58,5.66,3.58,9.66L536.69,527.39z M530.62,522.61c-0.4-1.35-1.19-2.45-2.37-3.29c-1.18-0.84-2.55-1.27-4.11-1.27
			c-1.69,0-3.18,0.47-4.45,1.42c-0.8,0.59-1.54,1.64-2.23,3.13H530.62z"/>
		<path class="st0" d="M541.56,513.54h6.07v2.78c1.04-1.14,2.19-1.99,3.46-2.56c1.27-0.56,2.65-0.84,4.15-0.84
			c1.51,0,2.88,0.37,4.09,1.11c1.22,0.74,2.19,1.82,2.94,3.25c0.96-1.42,2.15-2.5,3.55-3.25c1.4-0.74,2.93-1.11,4.59-1.11
			c1.72,0,3.23,0.4,4.54,1.2c1.31,0.8,2.24,1.84,2.81,3.13c0.57,1.29,0.86,3.39,0.86,6.29v14.18h-6.11v-12.27
			c0-2.74-0.34-4.6-1.02-5.57c-0.68-0.97-1.7-1.46-3.07-1.46c-1.04,0-1.97,0.3-2.79,0.89c-0.82,0.59-1.43,1.41-1.83,2.46
			c-0.4,1.05-0.6,2.72-0.6,5.04v10.91h-6.11v-11.71c0-2.16-0.16-3.73-0.48-4.7c-0.32-0.97-0.8-1.69-1.44-2.17
			c-0.64-0.47-1.41-0.71-2.32-0.71c-1.01,0-1.93,0.3-2.75,0.9c-0.82,0.6-1.44,1.44-1.85,2.52c-0.41,1.08-0.61,2.79-0.61,5.11v10.76
			h-6.07V513.54z"/>
		<path class="st0" d="M608.62,527.39h-19.49c0.28,1.72,1.03,3.09,2.26,4.1c1.22,1.02,2.78,1.52,4.68,1.52
			c2.27,0,4.22-0.79,5.85-2.38l5.11,2.4c-1.27,1.81-2.8,3.15-4.58,4.01c-1.78,0.87-3.89,1.3-6.34,1.3c-3.79,0-6.88-1.2-9.27-3.59
			c-2.39-2.39-3.58-5.39-3.58-8.99c0-3.69,1.19-6.75,3.57-9.19c2.38-2.44,5.36-3.66,8.95-3.66c3.81,0,6.91,1.22,9.29,3.66
			s3.58,5.66,3.58,9.66L608.62,527.39z M602.56,522.61c-0.4-1.35-1.19-2.45-2.37-3.29c-1.18-0.84-2.55-1.27-4.11-1.27
			c-1.69,0-3.18,0.47-4.45,1.42c-0.8,0.59-1.54,1.64-2.23,3.13H602.56z"/>
		<path class="st0" d="M613.54,513.54h6.07v2.48c1.38-1.16,2.62-1.97,3.74-2.42c1.12-0.45,2.26-0.68,3.43-0.68
			c2.4,0,4.43,0.84,6.1,2.51c1.41,1.42,2.11,3.53,2.11,6.31v15.98h-6v-10.59c0-2.89-0.13-4.8-0.39-5.75
			c-0.26-0.95-0.71-1.67-1.35-2.16c-0.64-0.5-1.44-0.74-2.38-0.74c-1.23,0-2.28,0.41-3.16,1.23c-0.88,0.82-1.49,1.96-1.83,3.41
			c-0.18,0.75-0.27,2.39-0.27,4.91v9.7h-6.07V513.54z"/>
		<path class="st0" d="M641.59,504.63h6.07v8.91h3.6v5.22h-3.6v18.96h-6.07v-18.96h-3.11v-5.22h3.11V504.63z"/>
		<path class="st0" d="M688.41,524.88l3.71,4.25l-1.69,1.53l-1.66,1.51l5.25,5.56h-7.55l-2.16-2.22c-3.44,2.03-6.63,3.04-9.58,3.04
			c-2.5,0-4.53-0.73-6.08-2.2c-1.55-1.47-2.32-3.35-2.32-5.65c0-1.73,0.44-3.37,1.32-4.91c0.88-1.54,2.38-3.13,4.51-4.78
			c-2.1-2.83-3.16-5.33-3.16-7.51c0-1.62,0.7-3.21,2.09-4.78c1.39-1.57,3.36-2.36,5.89-2.36c2.56,0,4.53,0.78,5.9,2.33
			c1.37,1.56,2.06,3.13,2.06,4.71c0,1.25-0.31,2.44-0.94,3.58c-0.63,1.14-2.08,2.83-4.35,5.07c2.65,3.13,4.37,5.08,5.14,5.85
			C685.25,527.55,686.46,526.54,688.41,524.88z M680.28,531.18c-1.14-1.12-2.76-2.99-4.84-5.59c-2.19,1.82-3.29,3.42-3.29,4.78
			c0,0.64,0.3,1.22,0.9,1.76c0.6,0.53,1.36,0.8,2.28,0.8C676.65,532.92,678.3,532.34,680.28,531.18z M676.58,517.68
			c1.65-1.41,2.47-2.65,2.47-3.73c0-0.56-0.19-1.02-0.56-1.38c-0.37-0.36-0.86-0.53-1.47-0.53c-0.56,0-1.04,0.2-1.43,0.6
			c-0.39,0.4-0.59,0.87-0.59,1.4C675,515.1,675.52,516.31,676.58,517.68z"/>
		<path class="st0" d="M711.61,537.73v-32.7h5.14c2.98,0,5.16,0.19,6.54,0.58c1.96,0.52,3.52,1.48,4.67,2.89
			c1.16,1.41,1.74,3.07,1.74,4.98c0,1.24-0.26,2.38-0.79,3.39c-0.53,1.02-1.38,1.97-2.57,2.86c1.99,0.93,3.44,2.1,4.36,3.5
			c0.92,1.4,1.38,3.06,1.38,4.97c0,1.84-0.47,3.51-1.42,5.02c-0.95,1.51-2.17,2.64-3.67,3.39c-1.5,0.75-3.57,1.12-6.21,1.12H711.61z
			 M717.83,510.96v6.89h1.36c1.52,0,2.64-0.32,3.38-0.96c0.74-0.64,1.1-1.5,1.1-2.6c0-1.02-0.35-1.83-1.05-2.43
			c-0.7-0.6-1.76-0.9-3.19-0.9H717.83z M717.83,523.41v8.38h1.56c2.59,0,4.33-0.33,5.23-0.98c0.9-0.65,1.35-1.6,1.35-2.84
			c0-1.41-0.53-2.52-1.58-3.34c-1.06-0.81-2.81-1.22-5.26-1.22H717.83z"/>
		<path class="st0" d="M737.33,513.54h6.13v11.65c0,2.27,0.16,3.84,0.47,4.72c0.31,0.88,0.81,1.57,1.5,2.06
			c0.69,0.49,1.54,0.73,2.55,0.73c1.01,0,1.87-0.24,2.57-0.72c0.71-0.48,1.23-1.19,1.57-2.12c0.25-0.7,0.38-2.19,0.38-4.47v-11.85
			h6.07v10.25c0,4.22-0.33,7.11-1,8.67c-0.82,1.9-2.02,3.35-3.6,4.37c-1.59,1.01-3.6,1.52-6.05,1.52c-2.65,0-4.8-0.59-6.44-1.78
			c-1.64-1.18-2.79-2.84-3.46-4.96c-0.47-1.47-0.71-4.13-0.71-8V513.54z"/>
		<path class="st0" d="M779.47,516.92l-3.76,3.76c-1.53-1.51-2.91-2.27-4.16-2.27c-0.68,0-1.22,0.14-1.6,0.43
			c-0.39,0.29-0.58,0.65-0.58,1.08c0,0.33,0.12,0.63,0.37,0.9c0.24,0.27,0.85,0.65,1.81,1.12l2.22,1.11
			c2.34,1.16,3.95,2.33,4.82,3.53c0.87,1.2,1.31,2.61,1.31,4.22c0,2.15-0.79,3.94-2.37,5.38c-1.58,1.44-3.69,2.16-6.35,2.16
			c-3.53,0-6.34-1.38-8.45-4.13l3.73-4.07c0.71,0.83,1.54,1.5,2.5,2.01c0.96,0.51,1.8,0.77,2.54,0.77c0.8,0,1.44-0.19,1.93-0.58
			c0.49-0.39,0.73-0.83,0.73-1.33c0-0.93-0.88-1.84-2.64-2.73l-2.05-1.02c-3.91-1.97-5.87-4.44-5.87-7.4c0-1.91,0.74-3.54,2.21-4.9
			c1.47-1.36,3.36-2.03,5.66-2.03c1.57,0,3.05,0.34,4.43,1.03C777.33,514.64,778.51,515.63,779.47,516.92z"/>
		<path class="st0" d="M787.06,503.58c1.06,0,1.98,0.39,2.74,1.16c0.76,0.77,1.14,1.71,1.14,2.8c0,1.08-0.38,2-1.13,2.77
			c-0.75,0.76-1.65,1.14-2.7,1.14c-1.08,0-2-0.39-2.76-1.17c-0.76-0.78-1.14-1.72-1.14-2.83c0-1.07,0.38-1.98,1.13-2.73
			C785.09,503.96,786,503.58,787.06,503.58z M784.03,513.54h6.07v24.18h-6.07V513.54z"/>
		<path class="st0" d="M795.61,513.54h6.07v2.48c1.38-1.16,2.62-1.97,3.74-2.42c1.12-0.45,2.26-0.68,3.43-0.68
			c2.4,0,4.43,0.84,6.1,2.51c1.41,1.42,2.11,3.53,2.11,6.31v15.98h-6v-10.59c0-2.89-0.13-4.8-0.39-5.75
			c-0.26-0.95-0.71-1.67-1.35-2.16c-0.64-0.5-1.44-0.74-2.38-0.74c-1.23,0-2.28,0.41-3.16,1.23c-0.88,0.82-1.49,1.96-1.83,3.41
			c-0.18,0.75-0.27,2.39-0.27,4.91v9.7h-6.07V513.54z"/>
		<path class="st0" d="M847.16,527.39h-19.49c0.28,1.72,1.03,3.09,2.26,4.1c1.22,1.02,2.78,1.52,4.68,1.52
			c2.27,0,4.22-0.79,5.85-2.38l5.11,2.4c-1.27,1.81-2.8,3.15-4.58,4.01c-1.78,0.87-3.89,1.3-6.34,1.3c-3.79,0-6.88-1.2-9.27-3.59
			c-2.39-2.39-3.58-5.39-3.58-8.99c0-3.69,1.19-6.75,3.57-9.19c2.38-2.44,5.36-3.66,8.95-3.66c3.81,0,6.91,1.22,9.29,3.66
			c2.39,2.44,3.58,5.66,3.58,9.66L847.16,527.39z M841.09,522.61c-0.4-1.35-1.19-2.45-2.37-3.29c-1.18-0.84-2.55-1.27-4.11-1.27
			c-1.69,0-3.18,0.47-4.45,1.42c-0.8,0.59-1.54,1.64-2.23,3.13H841.09z"/>
		<path class="st0" d="M866.87,516.92l-3.76,3.76c-1.53-1.51-2.91-2.27-4.16-2.27c-0.68,0-1.21,0.14-1.6,0.43
			c-0.39,0.29-0.58,0.65-0.58,1.08c0,0.33,0.12,0.63,0.37,0.9c0.24,0.27,0.85,0.65,1.81,1.12l2.22,1.11
			c2.34,1.16,3.95,2.33,4.82,3.53c0.87,1.2,1.31,2.61,1.31,4.22c0,2.15-0.79,3.94-2.37,5.38c-1.58,1.44-3.69,2.16-6.35,2.16
			c-3.53,0-6.34-1.38-8.45-4.13l3.73-4.07c0.71,0.83,1.54,1.5,2.5,2.01c0.96,0.51,1.8,0.77,2.54,0.77c0.8,0,1.45-0.19,1.93-0.58
			c0.49-0.39,0.73-0.83,0.73-1.33c0-0.93-0.88-1.84-2.65-2.73l-2.05-1.02c-3.91-1.97-5.87-4.44-5.87-7.4c0-1.91,0.74-3.54,2.21-4.9
			c1.47-1.36,3.36-2.03,5.66-2.03c1.57,0,3.05,0.34,4.43,1.03C864.74,514.64,865.91,515.63,866.87,516.92z"/>
		<path class="st0" d="M886.9,516.92l-3.76,3.76c-1.53-1.51-2.91-2.27-4.16-2.27c-0.68,0-1.21,0.14-1.6,0.43
			c-0.38,0.29-0.58,0.65-0.58,1.08c0,0.33,0.12,0.63,0.37,0.9c0.25,0.27,0.85,0.65,1.81,1.12l2.22,1.11
			c2.34,1.16,3.95,2.33,4.82,3.53c0.87,1.2,1.31,2.61,1.31,4.22c0,2.15-0.79,3.94-2.37,5.38c-1.58,1.44-3.69,2.16-6.35,2.16
			c-3.53,0-6.34-1.38-8.45-4.13l3.73-4.07c0.71,0.83,1.54,1.5,2.5,2.01c0.96,0.51,1.8,0.77,2.55,0.77c0.8,0,1.44-0.19,1.93-0.58
			c0.49-0.39,0.73-0.83,0.73-1.33c0-0.93-0.88-1.84-2.65-2.73l-2.04-1.02c-3.91-1.97-5.87-4.44-5.87-7.4c0-1.91,0.74-3.54,2.21-4.9
			c1.47-1.36,3.36-2.03,5.66-2.03c1.57,0,3.05,0.34,4.43,1.03C884.76,514.64,885.94,515.63,886.9,516.92z"/>
		<path class="st0" d="M902.31,505.03h18.07v6.14h-5.96v26.56h-6.31v-26.56h-5.8V505.03z"/>
		<path class="st0" d="M948.21,527.39h-19.5c0.28,1.72,1.03,3.09,2.26,4.1c1.22,1.02,2.78,1.52,4.68,1.52
			c2.27,0,4.22-0.79,5.85-2.38l5.11,2.4c-1.28,1.81-2.8,3.15-4.58,4.01c-1.78,0.87-3.89,1.3-6.33,1.3c-3.79,0-6.88-1.2-9.27-3.59
			c-2.39-2.39-3.58-5.39-3.58-8.99c0-3.69,1.19-6.75,3.57-9.19c2.38-2.44,5.36-3.66,8.95-3.66c3.81,0,6.91,1.22,9.29,3.66
			c2.39,2.44,3.58,5.66,3.58,9.66L948.21,527.39z M942.14,522.61c-0.4-1.35-1.19-2.45-2.37-3.29c-1.18-0.84-2.55-1.27-4.11-1.27
			c-1.69,0-3.18,0.47-4.45,1.42c-0.8,0.59-1.54,1.64-2.23,3.13H942.14z"/>
		<path class="st0" d="M976.79,518.43l-5.05,2.78c-0.95-0.99-1.89-1.68-2.82-2.07c-0.93-0.38-2.01-0.58-3.26-0.58
			c-2.27,0-4.11,0.68-5.51,2.03c-1.4,1.35-2.1,3.09-2.1,5.2c0,2.06,0.67,3.74,2.03,5.04c1.35,1.3,3.12,1.95,5.32,1.95
			c2.71,0,4.83-0.93,6.34-2.78l4.78,3.28c-2.59,3.37-6.25,5.06-10.98,5.06c-4.25,0-7.58-1.26-9.99-3.78
			c-2.41-2.52-3.61-5.47-3.61-8.85c0-2.34,0.58-4.5,1.76-6.47s2.8-3.52,4.9-4.65c2.1-1.13,4.44-1.69,7.04-1.69
			c2.4,0,4.56,0.48,6.47,1.43C974.01,515.31,975.58,516.67,976.79,518.43z"/>
		<path class="st0" d="M982.28,504.21h6.02v11.78c1.19-1.02,2.38-1.79,3.58-2.3c1.2-0.51,2.42-0.77,3.65-0.77
			c2.4,0,4.42,0.83,6.07,2.49c1.41,1.44,2.11,3.55,2.11,6.33v15.98h-5.98v-10.6c0-2.8-0.13-4.7-0.4-5.69
			c-0.27-0.99-0.72-1.73-1.37-2.22c-0.64-0.49-1.44-0.73-2.39-0.73c-1.23,0-2.29,0.41-3.17,1.22c-0.88,0.82-1.49,1.93-1.83,3.33
			c-0.18,0.73-0.27,2.39-0.27,4.98v9.71h-6.02V504.21z"/>
		<path class="st0" d="M1009.58,513.54h6.07v2.48c1.38-1.16,2.62-1.97,3.74-2.42c1.12-0.45,2.26-0.68,3.43-0.68
			c2.4,0,4.43,0.84,6.1,2.51c1.41,1.42,2.11,3.53,2.11,6.31v15.98h-6v-10.59c0-2.89-0.13-4.8-0.39-5.75
			c-0.26-0.95-0.71-1.67-1.35-2.16c-0.64-0.5-1.44-0.74-2.38-0.74c-1.23,0-2.28,0.41-3.16,1.23c-0.88,0.82-1.49,1.96-1.83,3.41
			c-0.18,0.75-0.27,2.39-0.27,4.91v9.7h-6.07V513.54z"/>
		<path class="st0" d="M1048.26,512.92c2.28,0,4.43,0.57,6.44,1.71c2.01,1.14,3.58,2.69,4.7,4.65c1.13,1.96,1.69,4.07,1.69,6.34
			c0,2.28-0.57,4.42-1.7,6.4c-1.13,1.99-2.68,3.54-4.63,4.66c-1.96,1.12-4.11,1.68-6.47,1.68c-3.47,0-6.43-1.23-8.88-3.7
			c-2.45-2.47-3.68-5.46-3.68-8.99c0-3.78,1.38-6.93,4.16-9.45C1042.31,514.02,1045.1,512.92,1048.26,512.92z M1048.36,518.63
			c-1.89,0-3.46,0.66-4.71,1.97c-1.25,1.31-1.88,2.99-1.88,5.04c0,2.1,0.62,3.81,1.86,5.11c1.24,1.3,2.81,1.96,4.71,1.96
			s3.48-0.66,4.74-1.98c1.26-1.32,1.89-3.02,1.89-5.09c0-2.08-0.62-3.76-1.86-5.06C1051.87,519.28,1050.29,518.63,1048.36,518.63z"
			/>
		<path class="st0" d="M1065.37,504.21h6.07v33.52h-6.07V504.21z"/>
		<path class="st0" d="M1088.31,512.92c2.28,0,4.43,0.57,6.44,1.71c2.01,1.14,3.58,2.69,4.7,4.65c1.13,1.96,1.69,4.07,1.69,6.34
			c0,2.28-0.57,4.42-1.7,6.4c-1.13,1.99-2.68,3.54-4.63,4.66c-1.96,1.12-4.11,1.68-6.47,1.68c-3.47,0-6.43-1.23-8.88-3.7
			c-2.45-2.47-3.68-5.46-3.68-8.99c0-3.78,1.38-6.93,4.16-9.45C1082.36,514.02,1085.16,512.92,1088.31,512.92z M1088.41,518.63
			c-1.89,0-3.46,0.66-4.71,1.97c-1.25,1.31-1.88,2.99-1.88,5.04c0,2.1,0.62,3.81,1.86,5.11c1.24,1.3,2.81,1.96,4.71,1.96
			c1.9,0,3.48-0.66,4.74-1.98c1.26-1.32,1.89-3.02,1.89-5.09c0-2.08-0.62-3.76-1.86-5.06
			C1091.93,519.28,1090.34,518.63,1088.41,518.63z"/>
		<path class="st0" d="M1123.97,513.54h6.05v20.72c0,4.09-0.82,7.1-2.47,9.02c-2.21,2.61-5.53,3.91-9.98,3.91
			c-2.37,0-4.36-0.3-5.98-0.89c-1.62-0.59-2.98-1.46-4.09-2.61c-1.11-1.15-1.93-2.55-2.47-4.19h6.69c0.59,0.68,1.36,1.2,2.29,1.54
			c0.93,0.35,2.04,0.52,3.31,0.52c1.63,0,2.94-0.25,3.93-0.76c0.99-0.5,1.69-1.16,2.1-1.96c0.41-0.8,0.61-2.18,0.61-4.13
			c-1.07,1.07-2.19,1.83-3.36,2.3c-1.17,0.47-2.5,0.7-3.98,0.7c-3.25,0-5.99-1.17-8.22-3.51c-2.24-2.34-3.36-5.31-3.36-8.89
			c0-3.84,1.19-6.92,3.56-9.25c2.15-2.1,4.71-3.16,7.69-3.16c1.39,0,2.71,0.25,3.95,0.77c1.24,0.51,2.48,1.35,3.72,2.52V513.54z
			 M1117.68,518.59c-1.91,0-3.49,0.64-4.73,1.92c-1.25,1.28-1.87,2.89-1.87,4.84c0,2.01,0.64,3.67,1.91,4.96
			c1.27,1.29,2.88,1.93,4.8,1.93c1.88,0,3.43-0.63,4.66-1.89c1.22-1.26,1.83-2.91,1.83-4.96c0-2.01-0.61-3.65-1.84-4.91
			C1121.2,519.22,1119.62,518.59,1117.68,518.59z"/>
		<path class="st0" d="M1133.46,513.54h6.2l6.28,15.17l6.93-15.17h6.22l-15.15,33.03h-6.27l4.97-10.65L1133.46,513.54z"/>
	</g>
</g>
</svg>
