<svg xmlns="http://www.w3.org/2000/svg" viewBox="0 0 1310.89 799.55"><defs><style>.a{fill:#fff;}</style></defs><path class="a" d="M563.76,310.5V464.75h-38.2V310.5Z"/><path class="a" d="M765.28,405.7c-.74-18.53-1.51-41-1.51-63.39h-.49C757.75,362,750.71,384,744.18,402l-20.62,60.19H693.67l-18.1-59.5c-5.53-18.31-11.06-40.28-15.32-60.42h-.51C659,363.13,658,386.93,657,406.16l-3.27,58.59H618.28l10.8-154.25h51L696.68,362c5.53,17.85,10.56,37.07,14.33,55.16h1c4.52-17.85,10.3-38.23,16.08-55.39l17.84-51.26h50.26l9,154.25H768.05Z"/><path class="a" d="M859.75,312.56c10-1.6,30.15-3.2,49.5-3.2,23.37,0,37.69,2.05,50.25,8.69,11.83,5.72,20.1,16.25,20.1,30.44,0,13.5-8.77,26.09-27.89,32.72v.46c19.36,4.57,33.68,18.08,33.68,37.76,0,14.19-7,25.18-17.59,33-12.31,8.93-32.92,13.95-66.58,13.95a326,326,0,0,1-41.47-2.28Zm37.94,59h12.57c20.36,0,30.91-7.55,30.91-19,0-11.68-9.8-17.85-27.14-17.85a110.53,110.53,0,0,0-16.34.91Zm0,68.42a131.88,131.88,0,0,0,14.82.46c17.34,0,32.68-6.17,32.68-22.42,0-15.33-15.34-21.52-34.43-21.52H897.69Z"/><path class="a" d="M1065,339.79h-45.73V310.5h130.18v29.29h-46.26v125H1065Z"/><rect class="a" x="402.58" y="191.54" width="77.22" height="77.22"/><rect class="a" x="402.58" y="293.29" width="77.22" height="77.21"/><rect class="a" x="303.45" y="293.29" width="77.22" height="77.21"/><rect class="a" x="303.45" y="395.03" width="77.22" height="77.22"/><rect class="a" x="198.05" y="395.03" width="77.22" height="77.22"/><rect class="a" x="402.58" y="395.03" width="77.22" height="77.22"/><path class="a" d="M169.48,526.47h6.18v32.7h-6.18Z"/><path class="a" d="M182,535h6.07v2.48a14.31,14.31,0,0,1,3.74-2.42,9.07,9.07,0,0,1,3.42-.68,8.32,8.32,0,0,1,6.11,2.51c1.4,1.42,2.11,3.53,2.11,6.31v16h-6V548.58a26.59,26.59,0,0,0-.39-5.75,4,4,0,0,0-1.35-2.17,3.78,3.78,0,0,0-2.39-.74,4.47,4.47,0,0,0-3.16,1.23,6.58,6.58,0,0,0-1.83,3.41,27.36,27.36,0,0,0-.26,4.9v9.71H182Z"/><path class="a" d="M224.12,538.36l-3.76,3.76c-1.52-1.51-2.91-2.27-4.15-2.27a2.6,2.6,0,0,0-1.6.43,1.29,1.29,0,0,0-.21,2,6.4,6.4,0,0,0,1.81,1.12l2.22,1.12a13,13,0,0,1,4.82,3.53,7.34,7.34,0,0,1-1.05,9.6,9.07,9.07,0,0,1-6.35,2.16,10.09,10.09,0,0,1-8.45-4.14l3.74-4.06a8.52,8.52,0,0,0,2.5,2,5.53,5.53,0,0,0,2.54.76,3.09,3.09,0,0,0,1.94-.57,1.68,1.68,0,0,0,.73-1.34q0-1.4-2.64-2.73l-2.05-1q-5.86-3-5.87-7.41a6.42,6.42,0,0,1,2.22-4.9,8,8,0,0,1,5.65-2,9.78,9.78,0,0,1,8,4Z"/><path class="a" d="M230.08,526.07h6.07V535h3.6v5.23h-3.6v19h-6.07v-19H227V535h3.11Z"/><path class="a" d="M245.36,525a3.73,3.73,0,0,1,2.74,1.16,4,4,0,0,1,0,5.57,3.82,3.82,0,0,1-5.47,0,3.89,3.89,0,0,1-1.14-2.83,3.88,3.88,0,0,1,3.86-3.87Zm-3,10h6.06v24.19h-6.06Z"/><path class="a" d="M254.64,526.07h6.07V535h3.6v5.23h-3.6v19h-6.07v-19h-3.11V535h3.11Z"/><path class="a" d="M267.53,535h6.14v11.65a16.23,16.23,0,0,0,.46,4.72,4.21,4.21,0,0,0,1.51,2.06,4.29,4.29,0,0,0,2.55.73,4.44,4.44,0,0,0,2.57-.72,4.28,4.28,0,0,0,1.58-2.12,16.56,16.56,0,0,0,.37-4.47V535h6.07v10.25q0,6.33-1,8.67a9.41,9.41,0,0,1-3.6,4.37,11,11,0,0,1-6,1.52A10.7,10.7,0,0,1,271.7,558a9.39,9.39,0,0,1-3.46-5,30.17,30.17,0,0,1-.71-8Z"/><path class="a" d="M295.61,526.07h6.07V535h3.6v5.23h-3.6v19h-6.07v-19h-3.12V535h3.12Z"/><path class="a" d="M339.11,525.65h6.07v33.52h-6.07v-2.56a11.68,11.68,0,0,1-3.57,2.43,9.89,9.89,0,0,1-3.87.75,10.74,10.74,0,0,1-8.1-3.64,12.66,12.66,0,0,1-3.42-9,13,13,0,0,1,3.31-9.18,10.51,10.51,0,0,1,8-3.58,10.23,10.23,0,0,1,4.09.82,11.15,11.15,0,0,1,3.53,2.47ZM332.73,540a6.14,6.14,0,0,0-4.68,2,7.94,7.94,0,0,0,0,10.26,6.11,6.11,0,0,0,4.66,2,6.22,6.22,0,0,0,4.74-2,7.23,7.23,0,0,0,1.88-5.21,7,7,0,0,0-1.88-5.11A6.3,6.3,0,0,0,332.73,540Z"/><path class="a" d="M375.54,548.83H356.05a6.47,6.47,0,0,0,2.25,4.1,7,7,0,0,0,4.68,1.52,8.11,8.11,0,0,0,5.85-2.37l5.11,2.4a12.11,12.11,0,0,1-4.58,4,14.41,14.41,0,0,1-6.33,1.3,12.52,12.52,0,0,1-9.27-3.59,12.19,12.19,0,0,1-3.58-9,12.61,12.61,0,0,1,3.57-9.19,12,12,0,0,1,8.94-3.66A12.41,12.41,0,0,1,372,538a13.17,13.17,0,0,1,3.58,9.65Zm-6.07-4.78a6.1,6.1,0,0,0-2.37-3.29,6.91,6.91,0,0,0-4.11-1.27,7.26,7.26,0,0,0-4.45,1.43,8,8,0,0,0-2.23,3.13Z"/><path class="a" d="M397,526.47h6.06l7.58,22.8,7.65-22.8h6.06l5.49,32.7h-6l-3.51-20.65-6.95,20.65h-5.48L401,538.52l-3.59,20.65h-6.06Z"/><path class="a" d="M452,535h6.06v24.19H452v-2.56a11.8,11.8,0,0,1-3.57,2.43,9.89,9.89,0,0,1-3.87.75,10.75,10.75,0,0,1-8.11-3.64,12.65,12.65,0,0,1-3.41-9,13,13,0,0,1,3.3-9.18,10.54,10.54,0,0,1,8-3.58,10.23,10.23,0,0,1,4.09.82,11.27,11.27,0,0,1,3.53,2.47Zm-6.38,5a6.12,6.12,0,0,0-4.68,2,7.18,7.18,0,0,0-1.86,5.1,7.26,7.26,0,0,0,1.89,5.16,6.15,6.15,0,0,0,4.67,2,6.25,6.25,0,0,0,4.74-2,7.27,7.27,0,0,0,1.88-5.21,7.06,7.06,0,0,0-1.88-5.11A6.31,6.31,0,0,0,445.63,540Z"/><path class="a" d="M464.21,535h6.07v2.48A14.31,14.31,0,0,1,474,535a9.08,9.08,0,0,1,3.43-.68,8.32,8.32,0,0,1,6.1,2.51c1.41,1.42,2.11,3.53,2.11,6.31v16h-6V548.58a26.59,26.59,0,0,0-.39-5.75,4,4,0,0,0-1.35-2.17,3.78,3.78,0,0,0-2.39-.74,4.49,4.49,0,0,0-3.16,1.23,6.58,6.58,0,0,0-1.83,3.41,28.39,28.39,0,0,0-.26,4.9v9.71h-6.07Z"/><path class="a" d="M509.38,535h6.07v24.19h-6.07v-2.56a11.68,11.68,0,0,1-3.57,2.43,9.89,9.89,0,0,1-3.87.75,10.74,10.74,0,0,1-8.1-3.64,12.66,12.66,0,0,1-3.42-9,13,13,0,0,1,3.3-9.18,10.54,10.54,0,0,1,8-3.58,10.23,10.23,0,0,1,4.09.82,11.15,11.15,0,0,1,3.53,2.47ZM503,540a6.12,6.12,0,0,0-4.68,2,7.94,7.94,0,0,0,0,10.26,6.11,6.11,0,0,0,4.66,2,6.22,6.22,0,0,0,4.74-2,7.23,7.23,0,0,0,1.88-5.21,7,7,0,0,0-1.88-5.11A6.3,6.3,0,0,0,503,540Z"/><path class="a" d="M539.45,535h6V555.7q0,6.13-2.47,9-3.31,3.91-10,3.92a17.57,17.57,0,0,1-6-.89,10.86,10.86,0,0,1-4.09-2.62,10.65,10.65,0,0,1-2.47-4.19h6.69a5.55,5.55,0,0,0,2.29,1.55,9.49,9.49,0,0,0,3.32.52,8.76,8.76,0,0,0,3.93-.75,4.62,4.62,0,0,0,2.1-2,9.86,9.86,0,0,0,.61-4.13,10.12,10.12,0,0,1-3.35,2.3,11.46,11.46,0,0,1-12.21-2.82,13.64,13.64,0,0,1,.2-18.13,10.6,10.6,0,0,1,7.69-3.16,10.08,10.08,0,0,1,4,.77,12.37,12.37,0,0,1,3.72,2.52Zm-6.29,5a6.31,6.31,0,0,0-4.73,1.92,6.64,6.64,0,0,0-1.87,4.84,6.76,6.76,0,0,0,1.91,5,6.49,6.49,0,0,0,4.8,1.94,6.22,6.22,0,0,0,4.66-1.89,6.84,6.84,0,0,0,1.83-5,6.72,6.72,0,0,0-1.84-4.91A6.37,6.37,0,0,0,533.16,540Z"/><path class="a" d="M575.86,548.83H556.37a6.47,6.47,0,0,0,2.25,4.1,7.08,7.08,0,0,0,4.68,1.52,8.11,8.11,0,0,0,5.85-2.37l5.11,2.4a12.11,12.11,0,0,1-4.58,4,14.41,14.41,0,0,1-6.33,1.3,12.52,12.52,0,0,1-9.27-3.59,12.19,12.19,0,0,1-3.58-9,12.61,12.61,0,0,1,3.57-9.19,12,12,0,0,1,8.94-3.66,12.44,12.44,0,0,1,9.3,3.66,13.2,13.2,0,0,1,3.57,9.65Zm-6.07-4.78a6.1,6.1,0,0,0-2.37-3.29,6.91,6.91,0,0,0-4.11-1.27,7.26,7.26,0,0,0-4.45,1.43,8,8,0,0,0-2.23,3.13Z"/><path class="a" d="M580.73,535h6.07v2.78a10.48,10.48,0,0,1,3.46-2.56,10.16,10.16,0,0,1,4.15-.84,7.72,7.72,0,0,1,4.09,1.11,8.1,8.1,0,0,1,2.94,3.25,9.53,9.53,0,0,1,8.14-4.36,8.47,8.47,0,0,1,4.53,1.2,6.9,6.9,0,0,1,2.82,3.13,16.81,16.81,0,0,1,.85,6.29v14.19h-6.11V546.9c0-2.75-.34-4.6-1-5.57a3.5,3.5,0,0,0-3.07-1.46,4.66,4.66,0,0,0-2.79.89,5.23,5.23,0,0,0-1.83,2.46,15.23,15.23,0,0,0-.6,5v10.92h-6.11V547.45a16.46,16.46,0,0,0-.48-4.7,4.29,4.29,0,0,0-1.44-2.17,3.81,3.81,0,0,0-2.32-.71,4.57,4.57,0,0,0-2.75.9,5.39,5.39,0,0,0-1.85,2.53,15.53,15.53,0,0,0-.61,5.11v10.76h-6.07Z"/><path class="a" d="M647.79,548.83H628.3a6.44,6.44,0,0,0,2.26,4.1,7,7,0,0,0,4.67,1.52,8.11,8.11,0,0,0,5.85-2.37l5.11,2.4a12.11,12.11,0,0,1-4.58,4,14.38,14.38,0,0,1-6.33,1.3A12.55,12.55,0,0,1,626,556.2a12.19,12.19,0,0,1-3.58-9A12.61,12.61,0,0,1,626,538a12,12,0,0,1,9-3.66,12.44,12.44,0,0,1,9.29,3.66,13.21,13.21,0,0,1,3.58,9.65Zm-6.06-4.78a6.17,6.17,0,0,0-2.38-3.29,6.9,6.9,0,0,0-4.1-1.27,7.27,7.27,0,0,0-4.46,1.43,7.85,7.85,0,0,0-2.22,3.13Z"/><path class="a" d="M652.71,535h6.06v2.48a14.65,14.65,0,0,1,3.74-2.42,9.12,9.12,0,0,1,3.43-.68,8.32,8.32,0,0,1,6.11,2.51c1.4,1.42,2.11,3.53,2.11,6.31v16h-6V548.58a26.81,26.81,0,0,0-.38-5.75,3.94,3.94,0,0,0-1.36-2.17,3.74,3.74,0,0,0-2.38-.74,4.47,4.47,0,0,0-3.16,1.23,6.58,6.58,0,0,0-1.83,3.41,27,27,0,0,0-.27,4.9v9.71h-6.06Z"/><path class="a" d="M680.76,526.07h6.07V535h3.6v5.23h-3.6v19h-6.07v-19h-3.11V535h3.11Z"/><path class="a" d="M727.58,546.32l3.7,4.24-1.68,1.54-1.66,1.51,5.24,5.56h-7.54l-2.16-2.23a19.08,19.08,0,0,1-9.58,3,8.52,8.52,0,0,1-6.08-2.2,7.43,7.43,0,0,1-2.32-5.65,9.75,9.75,0,0,1,1.32-4.91,16.89,16.89,0,0,1,4.5-4.78q-3.15-4.25-3.15-7.51a7.17,7.17,0,0,1,2.09-4.78,8.57,8.57,0,0,1,11.79,0,7.12,7.12,0,0,1,2.05,4.71,7.31,7.31,0,0,1-.94,3.58,27,27,0,0,1-4.35,5.07q4,4.68,5.14,5.84Q724.66,548.82,727.58,546.32Zm-8.13,6.3a70.27,70.27,0,0,1-4.84-5.59c-2.19,1.82-3.29,3.42-3.29,4.78a2.31,2.31,0,0,0,.9,1.75,3.27,3.27,0,0,0,2.28.8A10.44,10.44,0,0,0,719.45,552.62Zm-3.7-13.5q2.46-2.11,2.46-3.74a1.84,1.84,0,0,0-.55-1.38,2.05,2.05,0,0,0-1.47-.53,2,2,0,0,0-2,2A6.24,6.24,0,0,0,715.75,539.12Z"/><path class="a" d="M750.78,559.17v-32.7h5.14a26.37,26.37,0,0,1,6.54.58,8.72,8.72,0,0,1,4.68,2.89,7.6,7.6,0,0,1,1.73,5,7.17,7.17,0,0,1-.79,3.38,8.56,8.56,0,0,1-2.56,2.86,10.23,10.23,0,0,1,4.35,3.5,8.85,8.85,0,0,1,1.38,5,9.22,9.22,0,0,1-1.42,5,9,9,0,0,1-3.68,3.39,14,14,0,0,1-6.2,1.13ZM757,532.4v6.89h1.36a5,5,0,0,0,3.38-.95,3.27,3.27,0,0,0,1.11-2.6,3,3,0,0,0-1.05-2.44,4.8,4.8,0,0,0-3.19-.9Zm0,12.45v8.38h1.56c2.59,0,4.33-.32,5.23-1a3.29,3.29,0,0,0,1.35-2.84,4,4,0,0,0-1.59-3.34q-1.57-1.22-5.26-1.22Z"/><path class="a" d="M776.5,535h6.13v11.65a16.13,16.13,0,0,0,.47,4.72,4.13,4.13,0,0,0,1.5,2.06,4.29,4.29,0,0,0,2.55.73,4.5,4.5,0,0,0,2.58-.72,4.26,4.26,0,0,0,1.57-2.12,16.42,16.42,0,0,0,.38-4.47V535h6.07v10.25c0,4.22-.34,7.11-1,8.67a9.53,9.53,0,0,1-3.6,4.37,11.1,11.1,0,0,1-6,1.52,10.72,10.72,0,0,1-6.44-1.78,9.37,9.37,0,0,1-3.45-5c-.48-1.46-.71-4.13-.71-8Z"/><path class="a" d="M818.64,538.36l-3.76,3.76c-1.52-1.51-2.91-2.27-4.15-2.27a2.6,2.6,0,0,0-1.6.43,1.29,1.29,0,0,0-.21,2,6.4,6.4,0,0,0,1.81,1.12L813,544.5a13,13,0,0,1,4.82,3.53,7.34,7.34,0,0,1-1,9.6,9.05,9.05,0,0,1-6.35,2.16,10.07,10.07,0,0,1-8.44-4.14l3.73-4.06a8.52,8.52,0,0,0,2.5,2,5.53,5.53,0,0,0,2.55.76,3.06,3.06,0,0,0,1.93-.57,1.68,1.68,0,0,0,.73-1.34q0-1.4-2.64-2.73l-2.05-1q-5.86-3-5.87-7.41a6.42,6.42,0,0,1,2.22-4.9,8,8,0,0,1,5.65-2,9.78,9.78,0,0,1,8,4Z"/><path class="a" d="M826.23,525a3.71,3.71,0,0,1,2.74,1.16,4,4,0,0,1,0,5.57,3.66,3.66,0,0,1-2.7,1.14,3.71,3.71,0,0,1-2.76-1.17,3.89,3.89,0,0,1-1.14-2.83,3.88,3.88,0,0,1,3.85-3.87Zm-3,10h6.07v24.19H823.2Z"/><path class="a" d="M834.78,535h6.07v2.48a14.31,14.31,0,0,1,3.74-2.42,9.08,9.08,0,0,1,3.43-.68,8.32,8.32,0,0,1,6.1,2.51c1.41,1.42,2.11,3.53,2.11,6.31v16h-6V548.58a26.59,26.59,0,0,0-.39-5.75,4,4,0,0,0-1.35-2.17,3.78,3.78,0,0,0-2.39-.74,4.49,4.49,0,0,0-3.16,1.23,6.58,6.58,0,0,0-1.83,3.41,28.39,28.39,0,0,0-.26,4.9v9.71h-6.07Z"/><path class="a" d="M886.33,548.83h-19.5a6.48,6.48,0,0,0,2.26,4.1,7,7,0,0,0,4.68,1.52,8.09,8.09,0,0,0,5.84-2.37l5.12,2.4a12.26,12.26,0,0,1-4.58,4,14.43,14.43,0,0,1-6.34,1.3,12.55,12.55,0,0,1-9.27-3.59,12.23,12.23,0,0,1-3.58-9,12.61,12.61,0,0,1,3.57-9.19,12,12,0,0,1,9-3.66,12.42,12.42,0,0,1,9.29,3.66,13.17,13.17,0,0,1,3.58,9.65Zm-6.07-4.78a6.1,6.1,0,0,0-2.37-3.29,6.91,6.91,0,0,0-4.11-1.27,7.24,7.24,0,0,0-4.45,1.43,7.76,7.76,0,0,0-2.23,3.13Z"/><path class="a" d="M906,538.36l-3.75,3.76c-1.53-1.51-2.91-2.27-4.16-2.27a2.62,2.62,0,0,0-1.6.43,1.29,1.29,0,0,0-.21,2,6.56,6.56,0,0,0,1.81,1.12l2.22,1.12a13.13,13.13,0,0,1,4.83,3.53,7.36,7.36,0,0,1-1.06,9.6,9.05,9.05,0,0,1-6.35,2.16,10.07,10.07,0,0,1-8.44-4.14l3.73-4.06a8.65,8.65,0,0,0,2.5,2,5.57,5.57,0,0,0,2.55.76,3.06,3.06,0,0,0,1.93-.57,1.69,1.69,0,0,0,.74-1.34c0-.93-.89-1.84-2.65-2.73l-2-1q-5.88-3-5.87-7.41a6.41,6.41,0,0,1,2.21-4.9,8,8,0,0,1,5.66-2,9.78,9.78,0,0,1,7.95,4Z"/><path class="a" d="M926.07,538.36l-3.76,3.76c-1.52-1.51-2.91-2.27-4.15-2.27a2.6,2.6,0,0,0-1.6.43,1.29,1.29,0,0,0-.21,2,6.4,6.4,0,0,0,1.81,1.12l2.22,1.12A13,13,0,0,1,925.2,548a7.34,7.34,0,0,1-1.05,9.6,9.07,9.07,0,0,1-6.35,2.16,10.06,10.06,0,0,1-8.44-4.14l3.73-4.06a8.52,8.52,0,0,0,2.5,2,5.53,5.53,0,0,0,2.55.76,3.06,3.06,0,0,0,1.93-.57,1.68,1.68,0,0,0,.73-1.34q0-1.4-2.64-2.73l-2-1q-5.86-3-5.87-7.41a6.42,6.42,0,0,1,2.22-4.9,8,8,0,0,1,5.65-2,9.78,9.78,0,0,1,8,4Z"/><path class="a" d="M941.48,526.47h18.07v6.13h-6v26.57h-6.31V532.6h-5.8Z"/><path class="a" d="M987.38,548.83h-19.5a6.48,6.48,0,0,0,2.26,4.1,7,7,0,0,0,4.68,1.52,8.09,8.09,0,0,0,5.84-2.37l5.12,2.4a12.19,12.19,0,0,1-4.58,4,14.43,14.43,0,0,1-6.34,1.3,12.55,12.55,0,0,1-9.27-3.59,12.23,12.23,0,0,1-3.58-9,12.61,12.61,0,0,1,3.57-9.19,12,12,0,0,1,8.95-3.66,12.42,12.42,0,0,1,9.29,3.66,13.17,13.17,0,0,1,3.58,9.65Zm-6.07-4.78a6.1,6.1,0,0,0-2.37-3.29,6.91,6.91,0,0,0-4.11-1.27,7.24,7.24,0,0,0-4.45,1.43,7.76,7.76,0,0,0-2.23,3.13Z"/><path class="a" d="M1016,539.87l-5.05,2.78a8.76,8.76,0,0,0-2.81-2.07,8.59,8.59,0,0,0-3.26-.58,7.58,7.58,0,0,0-5.51,2,6.89,6.89,0,0,0-2.11,5.2,6.69,6.69,0,0,0,2,5,7.34,7.34,0,0,0,5.32,2,7.71,7.71,0,0,0,6.34-2.78l4.79,3.28q-3.9,5.06-11,5.06-6.37,0-10-3.78a12.57,12.57,0,0,1,3-20,14.58,14.58,0,0,1,7-1.69,14.34,14.34,0,0,1,6.47,1.43A12.32,12.32,0,0,1,1016,539.87Z"/><path class="a" d="M1021.45,525.65h6v11.78a13.52,13.52,0,0,1,3.58-2.3,9.05,9.05,0,0,1,3.64-.77,8.21,8.21,0,0,1,6.07,2.49q2.12,2.16,2.11,6.33v16h-6V548.56a26,26,0,0,0-.4-5.69,3.91,3.91,0,0,0-1.37-2.22,3.81,3.81,0,0,0-2.38-.73,4.47,4.47,0,0,0-3.17,1.22,6.49,6.49,0,0,0-1.84,3.33,28.73,28.73,0,0,0-.26,5v9.72h-6Z"/><path class="a" d="M1048.75,535h6.07v2.48a14.31,14.31,0,0,1,3.74-2.42,9.08,9.08,0,0,1,3.43-.68,8.32,8.32,0,0,1,6.1,2.51c1.41,1.42,2.11,3.53,2.11,6.31v16h-6V548.58a26.59,26.59,0,0,0-.39-5.75,4,4,0,0,0-1.35-2.17,3.78,3.78,0,0,0-2.39-.74,4.49,4.49,0,0,0-3.16,1.23,6.58,6.58,0,0,0-1.83,3.41,28.39,28.39,0,0,0-.26,4.9v9.71h-6.07Z"/><path class="a" d="M1087.43,534.36a12.82,12.82,0,0,1,6.43,1.71,12.28,12.28,0,0,1,4.7,4.65,12.4,12.4,0,0,1,1.69,6.33,12.62,12.62,0,0,1-1.7,6.4,12.26,12.26,0,0,1-4.63,4.66,12.79,12.79,0,0,1-6.47,1.68,12.08,12.08,0,0,1-8.88-3.7,12.82,12.82,0,0,1,.48-18.44A12.15,12.15,0,0,1,1087.43,534.36Zm.1,5.71a6.24,6.24,0,0,0-4.71,2,7,7,0,0,0-1.88,5,7.13,7.13,0,0,0,1.86,5.12,6.22,6.22,0,0,0,4.71,1.95,6.28,6.28,0,0,0,4.74-2,7.79,7.79,0,0,0,0-10.14A6.27,6.27,0,0,0,1087.53,540.07Z"/><path class="a" d="M1104.54,525.65h6.07v33.52h-6.07Z"/><path class="a" d="M1127.48,534.36a12.86,12.86,0,0,1,6.44,1.71,12.57,12.57,0,0,1,6.39,11,12.72,12.72,0,0,1-1.7,6.4,12.29,12.29,0,0,1-4.64,4.66,12.77,12.77,0,0,1-6.47,1.68,12.12,12.12,0,0,1-8.88-3.7,12.84,12.84,0,0,1,.48-18.44A12.17,12.17,0,0,1,1127.48,534.36Zm.1,5.71a6.27,6.27,0,0,0-4.71,2,7,7,0,0,0-1.88,5,7.13,7.13,0,0,0,1.86,5.12,6.66,6.66,0,0,0,9.45,0,7.78,7.78,0,0,0,0-10.14A6.29,6.29,0,0,0,1127.58,540.07Z"/><path class="a" d="M1163.14,535h6V555.7q0,6.13-2.47,9-3.3,3.91-10,3.92a17.47,17.47,0,0,1-6-.89,10.79,10.79,0,0,1-4.09-2.62,10.42,10.42,0,0,1-2.47-4.19h6.69a5.42,5.42,0,0,0,2.29,1.55,9.43,9.43,0,0,0,3.31.52,8.76,8.76,0,0,0,3.93-.75,4.6,4.6,0,0,0,2.11-2,10,10,0,0,0,.61-4.13,10.25,10.25,0,0,1-3.36,2.3,11.45,11.45,0,0,1-12.2-2.82,13.61,13.61,0,0,1,.2-18.13,10.57,10.57,0,0,1,7.69-3.16,10,10,0,0,1,3.94.77,12.53,12.53,0,0,1,3.73,2.52Zm-6.29,5a6.33,6.33,0,0,0-4.74,1.92,7.27,7.27,0,0,0,.05,9.79,6.46,6.46,0,0,0,4.8,1.94,6.2,6.2,0,0,0,4.65-1.89,6.8,6.8,0,0,0,1.84-5,6.72,6.72,0,0,0-1.85-4.91A6.34,6.34,0,0,0,1156.85,540Z"/><path class="a" d="M1172.63,535h6.21l6.28,15.18,6.93-15.18h6.22l-15.15,33h-6.27l5-10.65Z"/><path class="a" d="M353,84.57c4.64,0,8.86-8.87,3.19-8.87-4.64,0-8.86,8.87-3.19,8.87Z"/></svg>